<?xml version="1.0" encoding="UTF-8" standalone="no"?>
<!DOCTYPE svg PUBLIC "-//W3C//DTD SVG 1.1//EN"
 "http://www.w3.org/Graphics/SVG/1.1/DTD/svg11.dtd">
<!-- Generated by graphviz version 11.0.0 (20240428.1522)
 -->
<!-- Pages: 1 -->
<svg width="536pt" height="260pt"
 viewBox="0.00 0.00 536.25 260.00" xmlns="http://www.w3.org/2000/svg" xmlns:xlink="http://www.w3.org/1999/xlink">
<g id="graph0" class="graph" transform="scale(1 1) rotate(0) translate(4 256)">
<polygon fill="white" stroke="none" points="-4,4 -4,-256 532.25,-256 532.25,4 -4,4"/>
<!-- &#45;3917772400305544051 -->
<g id="node1" class="node">
<title>&#45;3917772400305544051</title>
<polygon fill="none" stroke="black" points="342.88,-252 184.38,-252 184.38,-216 342.88,-216 342.88,-252"/>
<text text-anchor="middle" x="263.62" y="-225.5" font-family="Helvetica,sans-Serif" font-size="20.00">Sub(Sum, Sum)</text>
</g>
<!-- &#45;3362262899941774278 -->
<g id="node2" class="node">
<title>&#45;3362262899941774278</title>
<polygon fill="none" stroke="black" points="254.62,-180 94.62,-180 94.62,-144 254.62,-144 254.62,-180"/>
<text text-anchor="middle" x="174.62" y="-153.5" font-family="Helvetica,sans-Serif" font-size="20.00">Sum(Projection)</text>
</g>
<!-- &#45;3362262899941774278&#45;&gt;&#45;3917772400305544051 -->
<g id="edge1" class="edge">
<title>&#45;3362262899941774278&#45;&gt;&#45;3917772400305544051</title>
<path fill="none" stroke="black" d="M196.63,-180.3C207.54,-188.89 220.9,-199.39 232.81,-208.76"/>
<polygon fill="black" stroke="black" points="230.36,-211.29 240.38,-214.72 234.68,-205.78 230.36,-211.29"/>
</g>
<!-- 6386593032459725822 -->
<g id="node3" class="node">
<title>6386593032459725822</title>
<polygon fill="none" stroke="black" points="255.25,-108 0,-108 0,-72 255.25,-72 255.25,-108"/>
<text text-anchor="middle" x="127.62" y="-81.5" font-family="Helvetica,sans-Serif" font-size="20.00">Projection(FromPandas, b)</text>
</g>
<!-- 6386593032459725822&#45;&gt;&#45;3362262899941774278 -->
<g id="edge3" class="edge">
<title>6386593032459725822&#45;&gt;&#45;3362262899941774278</title>
<path fill="none" stroke="black" d="M139.24,-108.3C144.54,-116.19 150.92,-125.7 156.8,-134.45"/>
<polygon fill="black" stroke="black" points="153.82,-136.29 162.3,-142.64 159.63,-132.39 153.82,-136.29"/>
</g>
<!-- 5700458449221340450 -->
<g id="node4" class="node">
<title>5700458449221340450</title>
<polygon fill="none" stroke="black" points="329,-36 198.25,-36 198.25,0 329,0 329,-36"/>
<text text-anchor="middle" x="263.62" y="-9.5" font-family="Helvetica,sans-Serif" font-size="20.00">FromPandas</text>
</g>
<!-- 5700458449221340450&#45;&gt;6386593032459725822 -->
<g id="edge4" class="edge">
<title>5700458449221340450&#45;&gt;6386593032459725822</title>
<path fill="none" stroke="black" d="M229.66,-36.48C212,-45.57 190.22,-56.78 171.32,-66.51"/>
<polygon fill="black" stroke="black" points="169.8,-63.36 162.51,-71.05 173,-69.58 169.8,-63.36"/>
</g>
<!-- &#45;1115390096172118296 -->
<g id="node6" class="node">
<title>&#45;1115390096172118296</title>
<polygon fill="none" stroke="black" points="528.25,-108 273,-108 273,-72 528.25,-72 528.25,-108"/>
<text text-anchor="middle" x="400.62" y="-81.5" font-family="Helvetica,sans-Serif" font-size="20.00">Projection(FromPandas, a)</text>
</g>
<!-- 5700458449221340450&#45;&gt;&#45;1115390096172118296 -->
<g id="edge6" class="edge">
<title>5700458449221340450&#45;&gt;&#45;1115390096172118296</title>
<path fill="none" stroke="black" d="M297.84,-36.48C315.63,-45.57 337.57,-56.78 356.61,-66.51"/>
<polygon fill="black" stroke="black" points="355,-69.62 365.5,-71.05 358.18,-63.38 355,-69.62"/>
</g>
<!-- &#45;4649682168785555236 -->
<g id="node5" class="node">
<title>&#45;4649682168785555236</title>
<polygon fill="none" stroke="black" points="456.62,-180 296.62,-180 296.62,-144 456.62,-144 456.62,-180"/>
<text text-anchor="middle" x="376.62" y="-153.5" font-family="Helvetica,sans-Serif" font-size="20.00">Sum(Projection)</text>
</g>
<!-- &#45;4649682168785555236&#45;&gt;&#45;3917772400305544051 -->
<g id="edge2" class="edge">
<title>&#45;4649682168785555236&#45;&gt;&#45;3917772400305544051</title>
<path fill="none" stroke="black" d="M348.4,-180.48C334.14,-189.32 316.63,-200.16 301.24,-209.7"/>
<polygon fill="black" stroke="black" points="299.43,-206.7 292.78,-214.94 303.12,-212.65 299.43,-206.7"/>
</g>
<!-- &#45;1115390096172118296&#45;&gt;&#45;4649682168785555236 -->
<g id="edge5" class="edge">
<title>&#45;1115390096172118296&#45;&gt;&#45;4649682168785555236</title>
<path fill="none" stroke="black" d="M394.69,-108.3C392.13,-115.76 389.08,-124.68 386.21,-133.03"/>
<polygon fill="black" stroke="black" points="382.91,-131.87 382.98,-142.46 389.53,-134.14 382.91,-131.87"/>
</g>
</g>
</svg>
